<svg aria-hidden="true" style="position: absolute; width: 0; height: 0; overflow: hidden;" version="1.1"
    xmlns="http://www.w3.org/2000/svg"
    xmlns:xlink="http://www.w3.org/1999/xlink">
    <defs>
        <symbol id="icon-linkedin" viewBox="0 0 32 32">
            <path d="M31.992 32v-0.001h0.008v-11.736c0-5.741-1.236-10.164-7.948-10.164-3.227 0-5.392 1.771-6.276 3.449h-0.093v-2.913h-6.364v21.364h6.627v-10.579c0-2.785 0.528-5.479 3.977-5.479 3.399 0 3.449 3.179 3.449 5.657v10.401h6.62z"></path>
            <path d="M0.528 10.636h6.635v21.364h-6.635v-21.364z"></path>
            <path d="M3.843 0c-2.121 0-3.843 1.721-3.843 3.843s1.721 3.879 3.843 3.879c2.121 0 3.843-1.757 3.843-3.879-0.001-2.121-1.723-3.843-3.843-3.843v0z"></path>
        </symbol>
        <symbol id="icon-facebook" viewBox="0 0 32 32">
            <path d="M21.329 5.313h2.921v-5.088c-0.504-0.069-2.237-0.225-4.256-0.225-4.212 0-7.097 2.649-7.097 7.519v4.481h-4.648v5.688h4.648v14.312h5.699v-14.311h4.46l0.708-5.688h-5.169v-3.919c0.001-1.644 0.444-2.769 2.735-2.769z"></path>
        </symbol>
        <symbol id="icon-twitter" viewBox="0 0 32 32">
            <path d="M32 6.078c-1.19 0.522-2.458 0.868-3.78 1.036 1.36-0.812 2.398-2.088 2.886-3.626-1.268 0.756-2.668 1.29-4.16 1.588-1.204-1.282-2.92-2.076-4.792-2.076-3.632 0-6.556 2.948-6.556 6.562 0 0.52 0.044 1.020 0.152 1.496-5.454-0.266-10.28-2.88-13.522-6.862-0.566 0.982-0.898 2.106-0.898 3.316 0 2.272 1.17 4.286 2.914 5.452-1.054-0.020-2.088-0.326-2.964-0.808 0 0.020 0 0.046 0 0.072 0 3.188 2.274 5.836 5.256 6.446-0.534 0.146-1.116 0.216-1.72 0.216-0.42 0-0.844-0.024-1.242-0.112 0.85 2.598 3.262 4.508 6.13 4.57-2.232 1.746-5.066 2.798-8.134 2.798-0.538 0-1.054-0.024-1.57-0.090 2.906 1.874 6.35 2.944 10.064 2.944 12.072 0 18.672-10 18.672-18.668 0-0.29-0.010-0.57-0.024-0.848 1.302-0.924 2.396-2.078 3.288-3.406z"></path>
        </symbol>
        <symbol id="icon-instagram" viewBox="0 0 32 32">
            <path d="M31.969 9.408c-0.075-1.7-0.35-2.869-0.744-3.882-0.406-1.075-1.032-2.038-1.851-2.838-0.8-0.813-1.769-1.444-2.832-1.844-1.019-0.394-2.182-0.669-3.882-0.744-1.713-0.081-2.257-0.1-6.601-0.1s-4.888 0.019-6.595 0.094c-1.7 0.075-2.869 0.35-3.882 0.744-1.075 0.406-2.038 1.031-2.838 1.85-0.813 0.8-1.444 1.769-1.844 2.832-0.394 1.019-0.669 2.182-0.744 3.882-0.081 1.713-0.1 2.257-0.1 6.601s0.019 4.888 0.094 6.595c0.075 1.7 0.35 2.869 0.744 3.882 0.406 1.075 1.038 2.038 1.85 2.838 0.8 0.813 1.769 1.444 2.832 1.844 1.019 0.394 2.182 0.669 3.882 0.744 1.706 0.075 2.25 0.094 6.595 0.094s4.888-0.019 6.595-0.094c1.7-0.075 2.869-0.35 3.882-0.744 2.151-0.832 3.851-2.532 4.682-4.682 0.394-1.019 0.669-2.182 0.744-3.882 0.075-1.707 0.094-2.251 0.094-6.595s-0.006-4.888-0.081-6.595zM29.087 22.473c-0.069 1.563-0.331 2.407-0.55 2.969-0.538 1.394-1.644 2.5-3.038 3.038-0.563 0.219-1.413 0.481-2.969 0.55-1.688 0.075-2.194 0.094-6.464 0.094s-4.782-0.019-6.464-0.094c-1.563-0.069-2.407-0.331-2.969-0.55-0.694-0.256-1.325-0.663-1.838-1.194-0.531-0.519-0.938-1.144-1.194-1.838-0.219-0.563-0.481-1.413-0.55-2.969-0.075-1.688-0.094-2.194-0.094-6.464s0.019-4.782 0.094-6.464c0.069-1.563 0.331-2.407 0.55-2.969 0.256-0.694 0.663-1.325 1.2-1.838 0.519-0.531 1.144-0.938 1.838-1.194 0.563-0.219 1.413-0.481 2.969-0.55 1.688-0.075 2.194-0.094 6.464-0.094 4.276 0 4.782 0.019 6.464 0.094 1.563 0.069 2.407 0.331 2.969 0.55 0.694 0.256 1.325 0.662 1.838 1.194 0.531 0.519 0.938 1.144 1.194 1.838 0.219 0.563 0.481 1.413 0.55 2.969 0.075 1.688 0.094 2.194 0.094 6.464s-0.019 4.77-0.094 6.458z"></path>
            <path d="M16.059 7.783c-4.538 0-8.22 3.682-8.22 8.22s3.682 8.22 8.22 8.22c4.538 0 8.22-3.682 8.22-8.22s-3.682-8.22-8.22-8.22zM16.059 21.335c-2.944 0-5.332-2.388-5.332-5.332s2.388-5.332 5.332-5.332c2.944 0 5.332 2.388 5.332 5.332s-2.388 5.332-5.332 5.332z"></path>
            <path d="M26.524 7.458c0 1.060-0.859 1.919-1.919 1.919s-1.919-0.859-1.919-1.919c0-1.060 0.859-1.919 1.919-1.919s1.919 0.859 1.919 1.919z"></path>
        </symbol>
        <symbol id="icon-send" viewBox="0 0 32 32">
            <path fill="#fff" d="M32 0 0 18l10.23 3.79L26 7 14 23.19h.01H14V32l5.74-6.7L27 28l5-28z" style="fill:var(--color1, #fff)"/>
        </symbol>
        <symbol id="icon-envelope" viewBox="0 0 43 32">
            <path d="M38.667 0h-34.667c-2.206 0-4 1.794-4 4v24c0 2.206 1.794 4 4 4h34.667c2.206 0 4-1.794 4-4v-24c0-2.206-1.794-4-4-4zM38.667 2.667c0.181 0 0.353 0.038 0.511 0.103l-17.844 15.466-17.844-15.466c0.158-0.066 0.33-0.103 0.511-0.103h34.667zM38.667 29.333h-34.667c-0.736 0-1.333-0.598-1.333-1.333v-22.413l17.793 15.421c0.251 0.217 0.563 0.326 0.874 0.326s0.622-0.108 0.874-0.326l17.793-15.421v22.413c0 0.736-0.598 1.333-1.333 1.333z"></path>
        </symbol>
        <symbol id="icon-smartphone" viewBox="0 0 20 32">
            <path d="M17 0h-14c-1.654 0-3 1.346-3 3v26c0 1.654 1.346 3 3 3h14c1.654 0 3-1.346 3-3v-26c0-1.654-1.346-3-3-3zM3 2h14c0.552 0 1 0.448 1 1v21h-16v-21c0-0.552 0.448-1 1-1zM17 30h-14c-0.552 0-1-0.448-1-1v-3h16v3c0 0.552-0.448 1-1 1z"></path>
            <path d="M4.707 27.478c0.391 0.365 0.391 0.956 0 1.321s-1.024 0.365-1.414 0c-0.391-0.365-0.391-0.956 0-1.321s1.024-0.365 1.414 0z"></path>
        </symbol>
        <symbol id="icon-x" viewBox="0 0 32 32">
            <path d="M15 4.1 13.9 3 9.5 7.4 5.1 3 4 4.1l4.4 4.4L4 12.9 5.1 14l4.4-4.4 4.4 4.4 1.1-1.1-4.4-4.4L15 4.1Z"/>
        </symbol>
        <symbol id="icon-menu" viewBox="0 0 32 32">
            <path d="M6.4 11.73V9.6h19.2v2.13H6.4zm0 5.34h19.2v-2.14H6.4v2.14zm0 5.33h19.2v-2.13H6.4v2.13z"/>
        </symbol>
        <symbol id="icon-whatsapp" viewBox="0 0 48 48">
            <path d="M40.92 6.97A23.6 23.6 0 0 0 24.1 0 23.8 23.8 0 0 0 3.5 35.67L.13 48l12.61-3.3c3.48 1.88 7.39 2.89 11.36 2.89h.01A23.82 23.82 0 0 0 40.92 6.98zM24.1 43.58c-3.55 0-7.03-.95-10.07-2.75l-.72-.43-7.48 1.96 2-7.3-.47-.75A19.8 19.8 0 0 1 38.09 9.8 19.8 19.8 0 0 1 24.1 43.58zm10.84-14.8c-.59-.3-3.51-1.74-4.06-1.94s-.94-.3-1.34.3c-.4.6-1.54 1.93-1.88 2.34-.35.39-.7.45-1.29.15s-2.51-.93-4.78-2.96c-1.76-1.57-2.96-3.52-3.3-4.11s-.04-.92.26-1.21c.27-.26.59-.7.89-1.04s.4-.6.59-1c.2-.4.1-.74-.05-1.04s-1.34-3.22-1.83-4.41c-.47-1.17-.97-1-1.34-1.03-.34-.02-.74-.02-1.13-.02s-1.04.15-1.59.75c-.54.59-2.08 2.03-2.08 4.95s2.13 5.75 2.43 6.15c.3.4 4.2 6.4 10.15 8.98 1.42.6 2.53.97 3.39 1.25 1.42.45 2.72.39 3.74.24 1.14-.17 3.52-1.44 4.01-2.82s.5-2.58.35-2.83c-.14-.26-.53-.41-1.13-.71z"/>
        </symbol>
        <symbol id="icon-github" viewBox="0 0 48 48">
            <path d="M24 .6a24 24 0 0 0-7.59 46.77c1.2.22 1.64-.52 1.64-1.16l-.03-4.47c-6.68 1.46-8.09-2.83-8.09-2.83-1.09-2.77-2.66-3.51-2.66-3.51-2.18-1.49.16-1.46.16-1.46 2.41.17 3.68 2.47 3.68 2.47 2.14 3.67 5.62 2.61 6.99 2a5.1 5.1 0 0 1 1.52-3.21C14.3 34.6 8.7 32.53 8.7 23.34a9.3 9.3 0 0 1 2.47-6.44c-.25-.6-1.07-3.05.23-6.36 0 0 2.02-.64 6.6 2.46a22.98 22.98 0 0 1 12.02 0c4.58-3.1 6.6-2.46 6.6-2.46 1.3 3.31.48 5.75.23 6.36a9.27 9.27 0 0 1 2.47 6.44c0 9.22-5.61 11.25-10.96 11.84.86.75 1.63 2.2 1.63 4.44 0 3.22-.03 5.8-.03 6.6 0 .63.43 1.38 1.65 1.14A24 24 0 0 0 24 .6z"/>
        </symbol>
        <symbol id="icon-sass" viewBox="0 0 32 32">
            <path fill="#cd6799" d="M27.54 17.8c-1.12 0-2.09.27-2.9.66-.3-.58-.6-1.1-.64-1.48-.06-.45-.13-.72-.06-1.25s.38-1.29.38-1.35c0-.05-.07-.33-.71-.33s-1.2.12-1.26.29-.19.55-.27.94c-.11.58-1.28 2.64-1.95 3.72a4 4 0 0 1-.44-1.08c-.06-.45-.13-.72-.06-1.25s.38-1.3.38-1.35c-.01-.06-.07-.33-.72-.33s-1.19.12-1.25.28c-.07.17-.14.57-.27.95A188.81 188.81 0 0 1 15.15 22l-.02.05-.18.33c-.08.16-.18.3-.22.3-.04 0-.1-.41 0-.98.24-1.2.8-3.06.79-3.12 0-.03.1-.36-.36-.52-.46-.17-.62.1-.66.1s-.07.1-.07.1.5-2.09-.97-2.09c-.92 0-2.19 1-2.82 1.9L8.5 19.23c-.35.2-.7.38-1.04.56l-.07-.07c-1.78-1.89-5.08-3.23-4.94-5.76.05-.93.37-3.35 6.34-6.3 4.9-2.4 8.81-1.74 9.49-.26.96 2.1-2.1 6-7.17 6.57-1.93.22-2.94-.52-3.2-.8-.27-.29-.31-.3-.41-.25-.16.1-.06.35 0 .5.15.4.78 1.09 1.83 1.43.93.3 3.2.47 5.95-.59 3.07-1.18 5.47-4.45 4.76-7.2-.7-2.78-5.36-3.7-9.78-2.15A22.27 22.27 0 0 0 2.75 9.2C.32 11.44-.06 13.4.09 14.22c.57 2.92 4.62 4.81 6.24 6.21l-.22.13c-.81.4-3.9 2-4.67 3.69-.87 1.92.14 3.3.8 3.48 2.09.57 4.23-.46 5.38-2.16a5.3 5.3 0 0 0 .45-4.95l.64-.37c.38-.23.77-.45 1.17-.65-.2.53-.34 1.17-.41 2.1-.1 1.09.36 2.5.95 3.05.26.24.57.25.76.25.7 0 1-.57 1.35-1.24.42-.82.8-1.77.8-1.77s-.48 2.58.8 2.58c.47 0 .94-.6 1.15-.91l.04-.05.07-.12v-.02c.19-.32.6-1.05 1.23-2.27.8-1.57 1.58-3.54 1.58-3.54s.07.48.31 1.28c.14.47.43.98.67 1.48l-.3.4c-.15.2-.32.42-.5.62-.63.76-1.39 1.62-1.5 1.87-.12.3-.09.5.15.68.16.12.47.14.78.12.57-.04.97-.17 1.17-.26.3-.11.67-.28 1-.53.63-.45 1-1.1.97-1.97a3.95 3.95 0 0 0-.36-1.4l.17-.23c.98-1.43 1.74-3 1.74-3s.07.48.31 1.28c.12.4.36.84.57 1.27a5.5 5.5 0 0 0-1.7 2.18c-.37 1.05-.09 1.52.46 1.63.24.06.59-.06.85-.17.32-.1.7-.28 1.08-.55.62-.45 1.22-1.09 1.18-1.95-.01-.4-.12-.78-.26-1.16.78-.32 1.8-.5 3.1-.35 2.76.33 3.31 2.04 3.2 2.76s-.68 1.12-.87 1.24c-.2.12-.26.16-.24.25.02.13.11.12.28.1.23-.04 1.46-.59 1.5-1.92.1-1.7-1.54-3.55-4.42-3.53zm-21.4 7.15c-.93 1-2.21 1.37-2.76 1.06-.6-.35-.37-1.81.76-2.87.7-.64 1.58-1.23 2.17-1.6l.57-.34.06-.03.14-.09c.42 1.5.02 2.83-.95 3.87zm6.7-4.52c-.33.78-1 2.76-1.4 2.65-.35-.1-.57-1.6-.07-3.08.25-.75.78-1.64 1.09-1.98.5-.56 1.05-.74 1.18-.52.17.3-.6 2.45-.8 2.93zm5.53 2.63c-.14.07-.27.11-.33.08-.04-.02.06-.12.06-.12s.7-.74.97-1.07l.54-.69v.07c0 .89-.86 1.49-1.25 1.73zm4.26-.97c-.1-.07-.08-.3.25-1.02.13-.28.44-.76.95-1.22.06.19.1.37.1.54 0 1.11-.81 1.53-1.3 1.7z" style="fill:var(--color1, #cd6799)"/>
        </symbol>
        <symbol id="icon-tailwind" viewBox="0 0 32 32">
            <path fill="#44a8b3" d="M9 13.7c.93-3.73 3.27-5.6 7-5.6 5.6 0 6.3 4.2 9.1 4.9 1.87.47 3.5-.23 4.9-2.1-.93 3.73-3.27 5.6-7 5.6-5.6 0-6.3-4.2-9.1-4.9-1.87-.47-3.5.23-4.9 2.1zm-7 8.4c.93-3.73 3.27-5.6 7-5.6 5.6 0 6.3 4.2 9.1 4.9 1.87.47 3.5-.23 4.9-2.1-.93 3.73-3.27 5.6-7 5.6-5.6 0-6.3-4.2-9.1-4.9-1.87-.47-3.5.23-4.9 2.1z" style="fill:var(--color1, #44a8b3)"/>
        </symbol>
        <symbol id="icon-css" viewBox="0 0 32 32">
            <path fill="#1572b6" d="M5.9 27.1 3.66 2.13h24.68L26.1 27.1 16 29.88 5.9 27.11z" style="fill:var(--color2, #1572b6)"/>
            <path fill="#33a9dc" d="m16 27.76 8.17-2.25 1.92-21.35H16v23.6z" style="fill:var(--color3, #33a9dc)"/>
            <path fill="#fff" d="M16 13.21h4.09l.28-3.14H16V7.02h7.75l-.07.82-.76 8.45H16V13.2z" style="fill:var(--color4, #fff)"/>
            <path fill="#ebebeb" d="M16.02 21.17H16l-3.44-.91-.22-2.45h-3.1l.43 4.82L16 24.36h.02v-3.2z" style="fill:var(--color5, #ebebeb)"/>
            <path fill="#fff" d="m19.83 16.15-.37 4.1-3.45.93v3.18l6.33-1.74.05-.51.54-5.96h-3.1z" style="fill:var(--color4, #fff)"/>
            <path fill="#ebebeb" d="M16.01 7.01v3.07H8.54l-.06-.7-.14-1.55-.07-.82H16zm-.01 6.2v3.07h-3.4l-.06-.69-.14-1.55-.08-.83H16z" style="fill:var(--color5, #ebebeb)"/>
        </symbol>
        <symbol id="icon-html" viewBox="0 0 32 32">
            <path fill="#e44f26" d="M5.9 27.2 3.65 2h24.7L26.1 27.2 15.99 30 5.9 27.2z" style="fill:var(--color6, #e44f26)"/>
            <path fill="#f1662a" d="m16 27.86 8.17-2.27 1.92-21.53H16v23.8z" style="fill:var(--color7, #f1662a)"/>
            <path fill="#ebebeb" d="M16 13.4h-4.09l-.28-3.16H16V7.15H8.25l.07.83.76 8.52H16v-3.1zm0 8.03h-.01l-3.45-.92-.22-2.47h-3.1l.43 4.86L16 24.65H16v-3.22z" style="fill:var(--color5, #ebebeb)"/>
            <path fill="#fff" d="M15.99 13.4v3.1h3.8l-.35 4-3.45.94v3.21l6.34-1.75.04-.53.73-8.13.07-.83H16zm0-6.25v3.1h7.47l.06-.7.14-1.57.07-.83H16z" style="fill:var(--color4, #fff)"/>
        </symbol>
        <symbol id="icon-js" viewBox="0 0 32 32">
            <path fill="#f5de19" d="M2 2h28v28H2V2z" style="fill:var(--color8, #f5de19)"/>
            <path d="M20.8 23.88a2.87 2.87 0 0 0 2.6 1.6c1.1 0 1.8-.55 1.8-1.3 0-.9-.72-1.23-1.92-1.75l-.66-.28c-1.9-.81-3.16-1.83-3.16-3.97 0-1.97 1.5-3.47 3.85-3.47a3.88 3.88 0 0 1 3.75 2.1L25 18.13A1.79 1.79 0 0 0 23.31 17a1.13 1.13 0 0 0-.88.29 1.16 1.16 0 0 0-.38.84c0 .79.5 1.1 1.62 1.6l.66.28c2.23.96 3.5 1.94 3.5 4.13 0 2.37-1.86 3.67-4.36 3.67a5.06 5.06 0 0 1-4.8-2.69l2.14-1.24zm-9.29.22c.42.74.8 1.36 1.7 1.36.86 0 1.4-.34 1.4-1.66v-8.94h2.64v8.98c0 2.72-1.6 3.96-3.93 3.96a4.09 4.09 0 0 1-3.95-2.4l2.14-1.3z" style="fill:var(--color9, #000)"/>
        </symbol>
        <symbol id="icon-react" viewBox="0 0 32 32">
            <path fill="#61dafb" d="M16 13.148a2.852 2.852 0 0 0 0 5.704 2.852 2.852 0 0 0 0-5.704zm-7.989 8.525-.629-.16C2.691 20.328.001 18.316.001 15.994s2.691-4.333 7.381-5.519l.629-.159.177.624a31.104 31.104 0 0 0 1.899 4.957l-.082-.186.135.284-.135.284a29.368 29.368 0 0 0-1.761 4.551l-.056.22zm-.922-9.74c-3.565 1.001-5.753 2.533-5.753 4.061 0 1.527 2.188 3.059 5.753 4.061a32.611 32.611 0 0 1 1.662-4.263l-.086.202a30.435 30.435 0 0 1-1.511-3.828l-.065-.234zm16.9 9.74-.177-.625a30.782 30.782 0 0 0-1.9-4.954l.081.184-.135-.284.135-.284a29.456 29.456 0 0 0 1.762-4.55l.056-.221.177-.624.631.159c4.689 1.185 7.38 3.197 7.38 5.52s-2.691 4.333-7.38 5.519zm-.654-5.678a33.038 33.038 0 0 1 1.576 4.061c3.567-1.003 5.753-2.535 5.753-4.061 0-1.528-2.188-3.059-5.753-4.061a32.424 32.424 0 0 1-1.662 4.262l.086-.2zM7.08 11.927l-.177-.623C5.584 6.656 5.984 3.325 8 2.163c1.977-1.141 5.152.207 8.479 3.621l.453.465-.453.465a31.6 31.6 0 0 0-3.162 3.853l-.068.103-.18.257-.313.027a31.667 31.667 0 0 0-5.264.86l.218-.047zm2.528-8.84c-.357 0-.673.077-.94.231-1.325.764-1.56 3.42-.647 7.004a31.194 31.194 0 0 1 4.18-.658l.131-.01a33.328 33.328 0 0 1 2.756-3.414l-.02.022c-2.08-2.025-4.049-3.175-5.46-3.175zm12.785 27.149c-.001 0-.001 0 0 0-1.9 0-4.34-1.431-6.872-4.031l-.453-.465.453-.465a31.427 31.427 0 0 0 3.16-3.854l.068-.103.18-.257.312-.027a31.74 31.74 0 0 0 5.267-.858l-.218.046.629-.159.179.624c1.316 4.645.917 7.977-1.099 9.139a3.132 3.132 0 0 1-1.562.411h-.047.002zm-5.461-4.508c2.08 2.025 4.049 3.175 5.46 3.175h.001c.356 0 .673-.077.939-.231 1.325-.764 1.561-3.421.647-7.005a30.933 30.933 0 0 1-4.182.658l-.13.01a33.219 33.219 0 0 1-2.755 3.416l.02-.022zm7.988-13.801-.629-.159c-1.453-.376-3.175-.664-4.939-.806l-.111-.007-.312-.027-.18-.257a31.57 31.57 0 0 0-3.237-3.966l.009.01-.453-.465.453-.465C18.846 2.372 22.02 1.024 24 2.164c2.016 1.163 2.416 4.493 1.099 9.14zm-5.253-2.274c1.523.139 2.969.364 4.312.668.915-3.584.679-6.24-.647-7.004-1.317-.761-3.793.405-6.4 2.944a33.376 33.376 0 0 1 2.666 3.289l.069.103zM9.608 30.236h-.046a3.153 3.153 0 0 1-1.577-.419l.015.008c-2.016-1.161-2.416-4.492-1.097-9.139l.176-.624.629.159c1.54.388 3.239.661 5.047.812l.313.027.179.257a31.521 31.521 0 0 0 3.239 3.967l-.01-.01.453.465-.453.465c-2.531 2.6-4.971 4.031-6.868 4.031zm-1.587-8.569c-.915 3.584-.679 6.241.647 7.005 1.316.751 3.791-.407 6.4-2.944a33.543 33.543 0 0 1-2.667-3.29l-.069-.103a33.315 33.315 0 0 1-4.534-.711l.224.043zm7.979.837c-1.097 0-2.225-.048-3.355-.141l-.313-.027-.18-.257a38.303 38.303 0 0 1-1.697-2.639l-.103-.19a36.12 36.12 0 0 1-1.45-2.728l-.105-.243-.133-.284.133-.284a38.537 38.537 0 0 1 1.658-3.161l-.103.191a40.4 40.4 0 0 1 1.8-2.829l.18-.257.313-.027a40.227 40.227 0 0 1 6.86.011l-.15-.011.312.027.179.257a39.103 39.103 0 0 1 3.252 5.56l.104.24.135.284-.135.284a39.328 39.328 0 0 1-3.439 5.925l.083-.125-.179.257-.312.027a41.083 41.083 0 0 1-3.356.141zm-2.929-1.445c1.973.148 3.885.148 5.86 0a37.57 37.57 0 0 0 2.827-4.836l.101-.228a37.891 37.891 0 0 0-3.012-5.19l.083.126a39.304 39.304 0 0 0-5.992.008l.134-.008a36.95 36.95 0 0 0-2.83 4.84l-.099.224a38.502 38.502 0 0 0 3.014 5.193l-.085-.13z" style="fill:var(--color1, #61dafb)"/>
        </symbol>
        <symbol id="icon-vscode" viewBox="0 0 32 32">
            <path fill="#0065a9" d="m29.01 5.03-5.77-2.78a1.74 1.74 0 0 0-1.98.34L2.38 19.8a1.17 1.17 0 0 0 0 1.72l1.54 1.4A1.17 1.17 0 0 0 5.4 23L28.14 5.75a1.16 1.16 0 0 1 1.86.92v-.06a1.75 1.75 0 0 0-.99-1.58z" style="fill:var(--color10, #0065a9)"/>
            <path fill="#007acc" d="m29.01 26.97-5.77 2.78a1.75 1.75 0 0 1-1.98-.34L2.38 12.2a1.17 1.17 0 0 1 0-1.72l1.54-1.4c.2-.19.46-.3.73-.3s.54.06.76.23l22.73 17.24a1.16 1.16 0 0 0 1.86-.92v.07c0 .33-.1.65-.27.93s-.42.5-.72.64z" style="fill:var(--color11, #007acc)"/>
            <path fill="#1f9cf0" d="M23.24 29.75a1.75 1.75 0 0 1-1.98-.34 1.02 1.02 0 0 0 1.1.22 1.02 1.02 0 0 0 .64-.95V3.32a1.03 1.03 0 0 0-.63-.95 1.02 1.02 0 0 0-1.12.22 1.74 1.74 0 0 1 2-.34L29 5.02a1.8 1.8 0 0 1 1 1.58v18.8a1.75 1.75 0 0 1-1 1.58l-5.76 2.77z" style="fill:var(--color12, #1f9cf0)"/>
        </symbol>
        <symbol id="icon-github" viewBox="0 0 48 48">
            <path d="M24 .6a24 24 0 0 0-7.59 46.77c1.2.22 1.64-.52 1.64-1.16l-.03-4.47c-6.68 1.46-8.09-2.83-8.09-2.83-1.09-2.77-2.66-3.51-2.66-3.51-2.18-1.49.16-1.46.16-1.46 2.41.17 3.68 2.47 3.68 2.47 2.14 3.67 5.62 2.61 6.99 2a5.1 5.1 0 0 1 1.52-3.21C14.3 34.6 8.7 32.53 8.7 23.34a9.3 9.3 0 0 1 2.47-6.44c-.25-.6-1.07-3.05.23-6.36 0 0 2.02-.64 6.6 2.46a22.98 22.98 0 0 1 12.02 0c4.58-3.1 6.6-2.46 6.6-2.46 1.3 3.31.48 5.75.23 6.36a9.27 9.27 0 0 1 2.47 6.44c0 9.22-5.61 11.25-10.96 11.84.86.75 1.63 2.2 1.63 4.44 0 3.22-.03 5.8-.03 6.6 0 .63.43 1.38 1.65 1.14A24 24 0 0 0 24 .6z"/>
        </symbol>
        <symbol id="icon-figma" viewBox="0 0 32 32">
            <path fill="#f24e1e" d="M16 16a5.33 5.33 0 1 1 10.67 0A5.33 5.33 0 1 1 16 16zM5.33 26.67a5.33 5.33 0 0 1 5.34-5.34H16v5.34a5.33 5.33 0 1 1-10.67 0zM16 0v10.67h5.33a5.33 5.33 0 1 0 0-10.67zM5.33 5.33a5.33 5.33 0 0 0 5.34 5.34H16V0h-5.33a5.33 5.33 0 0 0-5.34 5.33zm0 10.67a5.33 5.33 0 0 0 5.34 5.33H16V10.67h-5.33A5.33 5.33 0 0 0 5.33 16z" style="fill:var(--color1, #f24e1e)"/>
        </symbol >
        <symbol id="icon-hello" viewBox="0 0 128 128">
            <path d="M39.11 79.56c-1.1 1.03-2.21-.2-2.21-.2S18.42 59.78 17.22 58.9c-1.69-1.23-5.31-3.16-8.93.57-1.51 1.55-3.97 5 .6 10.56.99 1.2 29.78 31.54 31.46 33.18 0 0 13.3 12.94 21.35 17.81a39.15 39.15 0 0 0 7.67 3.78c2.92 1 6.22 1.69 9.7 1.69 3.48.04 7.09-.63 10.5-1.88a39.34 39.34 0 0 0 9.48-5.2c.71-.54 1.43-1.08 2.1-1.66l1.94-1.6a64.04 64.04 0 0 0 10.37-11.19 52.35 52.35 0 0 0 4.85-8.15 36.73 36.73 0 0 0 2.76-8.09c.58-2.59.74-5.04.65-7.18a23.5 23.5 0 0 0-1.97-8.7l-.51-1.1-1.29-3.63a889.62 889.62 0 0 0-4.51-12.47l.01.03c-4.85-13.17-10.06-26.74-10.06-26.74-.79-2.39-3.7-3.22-5.84-1.68-6.18 4.44-8.07 10.92-5.89 17.83l5.59 15.32c.79 1.71-1.39 3.69-2.85 2.5-4.59-3.74-14.3-14.05-14.3-14.05-4.34-4.16-28.83-29.27-30.47-30.8-3.3-3.07-7.46-4.65-10.63-2.32-3.24 2.38-4.14 6.06-1.01 10.08.85 1.09 25.6 27.24 25.6 27.24 1.44 1.51-.26 3.65-1.85 2.18 0 0-30.79-32.12-32.18-33.62-3.15-3.42-8.21-4.17-11.21-1.35-2.93 2.75-2.86 7.26.34 10.8 1.02 1.12 22.71 24.02 31.39 33.4.58.63 1.03 1.47.17 2.26-.01.01-.88.95-2-.25a7854.96 7854.96 0 0 0-27.24-28.41C18 35 13.96 33.55 10.71 36.53a7.27 7.27 0 0 0-.04 10.78l28.55 30.18s.93 1.1-.11 2.07z" style="fill:#fac036"/>
            <path d="m85.46 54.4 2.41 2.58s-13.79 13.31-4.39 33.75c0 0 1.22 2.59-.38 3.02 0 0-1.4.78-3-3.2 0-.01-9.49-19.42 5.36-36.15z" style="fill:#e48c15"/>
            <path d="M63.28 10.2s5.81.88 11.19 6.64c5.38 5.77 7.87 13.18 7.87 13.18M77.44 3.5s4.87 2.45 8.63 8.5a36.96 36.96 0 0 1 4.67 13.05M35.71 110.73s-5.86.39-12.35-4.09-10.52-11.18-10.52-11.18M31.53 120.56s-5.44.23-11.68-3.22-10.44-9.12-10.44-9.12" style="fill:none;stroke:#444;stroke-width:4;stroke-linecap:round;stroke-miterlimit:10"/>
        </symbol>
        <symbol id="icon-eng-flag" viewBox="0 0 55.2 38.4">

            <path d="M2.87 38.4h49.46c1.59-.09 2.87-1.42 2.87-3.03V3.03c0-1.66-1.35-3.02-3.01-3.03H3.01A3.037 3.037 0 0 0 0 3.03v32.33c0 1.62 1.28 2.95 2.87 3.04z" style="fill:#fefefe"/>
            <path d="M23.74 23.03V38.4h7.68V23.03H55.2v-7.68H31.42V0h-7.68v15.35H0v7.68h23.74z" class="st1"/>
            <path d="M33.98 12.43V0h18.23c1.26.02 2.34.81 2.78 1.92L33.98 12.43zM33.98 25.97V38.4h18.35c1.21-.07 2.23-.85 2.66-1.92L33.98 25.97zM21.18 25.97V38.4H2.87a3.043 3.043 0 0 1-2.66-1.94l20.97-10.49zM21.18 12.43V0H2.99A3.04 3.04 0 0 0 .21 1.94l20.97 10.49zM0 12.8h7.65L0 8.97v3.83zM55.2 12.8h-7.69l7.69-3.85v3.85zM55.2 25.6h-7.69l7.69 3.85V25.6zM0 25.6h7.65L0 29.43V25.6z" class="st2"/>
            <path d="M55.2 3.25 36.15 12.8h4.26L55.2 5.4V3.25zM19.01 25.6h-4.26L0 32.98v2.15l19.05-9.53h-.04zM10.52 12.81h4.26L0 5.41v2.14l10.52 5.26zM44.63 25.59h-4.26l14.83 7.43v-2.14l-10.57-5.29z" class="st1"/>
        </symbol>
        <symbol id="icon-vite" viewBox="0 0 128 128">
            <defs>
                <linearGradient id="a" x1="6" x2="235" y1="33" y2="344" gradientTransform="translate(0 .937) scale(.3122)" gradientUnits="userSpaceOnUse">
                    <stop offset="0" stop-color="#41d1ff"/>
                    <stop offset="1" stop-color="#bd34fe"/>
                </linearGradient>
                <linearGradient id="b" x1="194.651" x2="236.076" y1="8.818" y2="292.989" gradientTransform="translate(0 .937) scale(.3122)" gradientUnits="userSpaceOnUse">
                    <stop offset="0" stop-color="#ffea83"/>
                    <stop offset=".083" stop-color="#ffdd35"/>
                    <stop offset="1" stop-color="#ffa800"/>
                </linearGradient>
            </defs>
            <path fill="url(#a)" d="M124.766 19.52 67.324 122.238c-1.187 2.121-4.234 2.133-5.437.024L3.305 19.532c-1.313-2.302.652-5.087 3.261-4.622L64.07 25.187a3.09 3.09 0 0 0 1.11 0l56.3-10.261c2.598-.473 4.575 2.289 3.286 4.594Zm0 0"/>
            <path fill="url(#b)" d="M91.46 1.43 48.954 9.758a1.56 1.56 0 0 0-1.258 1.437l-2.617 44.168a1.563 1.563 0 0 0 1.91 1.614l11.836-2.735a1.562 1.562 0 0 1 1.88 1.836l-3.517 17.219a1.562 1.562 0 0 0 1.985 1.805l7.308-2.223c1.133-.344 2.223.652 1.985 1.812l-5.59 27.047c-.348 1.692 1.902 2.614 2.84 1.164l.625-.968 34.64-69.13c.582-1.16-.421-2.48-1.69-2.234l-12.185 2.352a1.558 1.558 0 0 1-1.793-1.965l7.95-27.562A1.56 1.56 0 0 0 91.46 1.43Zm0 0"/>
        </symbol>


        <symbol id="icon-responsive-web-design" viewBox="0 0 800 800">
            <defs>
                <clipPath id="clipPath10769">
                    <path d="M 0,600 H 600 V 0 H 0 Z"/>
                </clipPath>
            </defs>

            <g clip-path="url(#clipPath10769)" transform="matrix(1.3333333,0,0,-1.3333333,0,800)">
                <g transform="translate(145.6875,496.9712)">
                    <path d="m 0,0 h 313.133 c 6.689,0 12.164,-5.474 12.164,-12.165 V -196.74 c 0,-6.69 -5.475,-12.165 -12.164,-12.165 H 0 c -6.691,0 -12.165,5.475 -12.165,12.165 V -12.165 C -12.165,-5.474 -6.691,0 0,0" fill="#333"/>
                </g>
                <path d="m 145.189,299.732 h 314.13 v 185.572 h -314.13 z" fill="#d9e2eb"/>
                <g transform="translate(195.0684,485.3042)">
                    <path d="M 0,0 8.933,-8.933 H 264.251 V 0 Z" fill="#4d9ceb"/>
                </g>
                <path d="m 145.189,299.733 h 314.13 v 167.065 h -314.13 z" fill="#eff3f7"/>
                <path d="m 171.563,432.69 h 261.38 v 28.13 h -261.38 z" fill="#ff6666"/>
                <path d="m 171.563,350.937 h 52.813 v 74.133 h -52.813 z" fill="#80baf5"/>
                <path d="m 171.563,299.733 h 52.813 v 42.193 h -52.813 z" fill="#80baf5"/>
                <path d="m 364.615,350.937 h 68.328 v 74.133 h -68.328 z" fill="#cfe35d"/>
                <path d="m 364.615,299.733 h 68.328 v 42.193 h -68.328 z" fill="#cfe35d"/>
                <path d="M 230.94,299.733 H 359.244 V 425.07 H 230.94 Z" fill="#ccd3d9"/>
                <g transform="translate(423.25,399.3174)">
                    <path d="m 0,0 h 114.011 c 5.7,0 10.364,-4.663 10.364,-10.363 v -172.11 c 0,-5.7 -4.664,-10.364 -10.364,-10.364 H 0 c -5.7,0 -10.363,4.664 -10.363,10.364 v 172.11 C -10.363,-4.663 -5.7,0 0,0" fill="#1f1f1f"/>
                </g>
                <path d="M 419.442,213.037 H 541.068 V 392.761 H 419.442 Z" fill="#eff3f7"/>
                <g transform="translate(293.9248,258.3994)">
                    <path d="m 0,0 h 43.667 c 7.315,0 13.304,-5.987 13.304,-13.304 v -90.824 c 0,-7.318 -5.989,-13.305 -13.304,-13.305 H 0 c -7.317,0 -13.304,5.987 -13.304,13.305 v 90.824 C -13.304,-5.987 -7.317,0 0,0" fill="#1f1f1f"/>
                </g>
                <g transform="translate(72.853,330.0947)">
                    <path d="m 0,0 h 141.116 c 3.685,0 6.7,-3.015 6.7,-6.701 v -95.378 c 0,-3.687 -3.015,-6.7 -6.7,-6.7 H 0 c -3.685,0 -6.7,3.013 -6.7,6.7 V -6.701 C -6.7,-3.015 -3.685,0 0,0" fill="#1f1f1f"/>
                </g>
                <path d="m 72.284,227.445 h 142.254 v 96.518 H 72.284 Z" fill="#eff3f7"/>
            </g>
        </symbol>
        <symbol id="icon-ts" viewBox="0 0 128 128">
            <path fill="#fff" d="M22.67 47h99.67v73.67H22.67z"/>
            <path data-name="original" fill="#007acc" d="M1.5 63.91v62.5h125v-125H1.5zm100.73-5a15.56 15.56 0 017.82 4.5 20.58 20.58 0 013 4c0 .16-5.4 3.81-8.69 5.85-.12.08-.6-.44-1.13-1.23a7.09 7.09 0 00-5.87-3.53c-3.79-.26-6.23 1.73-6.21 5a4.58 4.58 0 00.54 2.34c.83 1.73 2.38 2.76 7.24 4.86 8.95 3.85 12.78 6.39 15.16 10 2.66 4 3.25 10.46 1.45 15.24-2 5.2-6.9 8.73-13.83 9.9a38.32 38.32 0 01-9.52-.1 23 23 0 01-12.72-6.63c-1.15-1.27-3.39-4.58-3.25-4.82a9.34 9.34 0 011.15-.73L82 101l3.59-2.08.75 1.11a16.78 16.78 0 004.74 4.54c4 2.1 9.46 1.81 12.16-.62a5.43 5.43 0 00.69-6.92c-1-1.39-3-2.56-8.59-5-6.45-2.78-9.23-4.5-11.77-7.24a16.48 16.48 0 01-3.43-6.25 25 25 0 01-.22-8c1.33-6.23 6-10.58 12.82-11.87a31.66 31.66 0 019.49.26zm-29.34 5.24v5.12H56.66v46.23H45.15V69.26H28.88v-5a49.19 49.19 0 01.12-5.17C29.08 59 39 59 51 59h21.83z"/>
        </symbol>

        <symbol id="icon-sql" viewBox="-8.78 0 70 70"
            xmlns="http://www.w3.org/2000/svg">
            <path d="m 852.97077,1013.9363 c -6.55238,-0.4723 -13.02857,-2.1216 -17.00034,-4.3296 -2.26232,-1.2576 -3.98589,-2.8032 -4.66223,-4.1807 l -0.4024,-0.8196 0,-25.70807 0,-25.7081 0.31843,-0.6465 c 1.42297,-2.889 5.96432,-5.4935 12.30378,-7.0562 2.15195,-0.5305 5.2586,-1.0588 7.79304,-1.3252 2.58797,-0.2721 9.44765,-0.2307 12.02919,0.073 6.86123,0.8061 12.69967,2.6108 16.29768,5.0377 1.38756,0.9359 2.81137,2.4334 3.29371,3.4642 l 0.41358,0.8838 -0.0354,25.6303 -0.0354,25.63047 -0.33195,0.6744 c -0.18257,0.3709 -0.73406,1.1007 -1.22553,1.6216 -2.99181,3.1715 -9.40919,5.5176 -17.8267,6.5172 -1.71567,0.2038 -9.16916,0.3686 -10.92937,0.2417 z m 12.07501,-22.02839 c -0.0252,-0.0657 -1.00472,-0.93831 -2.17671,-1.93922 -1.17199,-1.00091 -2.18138,-1.86687 -2.24309,-1.92436 -0.0617,-0.0575 0.15481,-0.26106 0.48117,-0.45237 0.32635,-0.19131 0.95163,-0.7235 1.3895,-1.18265 1.2805,-1.34272 1.88466,-3.00131 1.88466,-5.17388 0,-2.1388 -0.65162,-3.8645 -1.95671,-5.1818 -1.31533,-1.3278 -2.82554,-1.8983 -5.02486,-1.8983 -3.39007,0 -5.99368,1.9781 -6.82468,5.1851 -0.28586,1.1031 -0.28432,3.33211 0.003,4.31023 0.74941,2.55136 2.79044,4.40434 5.33062,4.83946 0.8596,0.14724 0.97605,0.21071 1.5621,0.85144 0.34829,0.38078 1.06301,1.14085 1.58827,1.68904 l 0.95501,0.9967 2.53878,0 c 1.39633,0 2.51816,-0.0537 2.49296,-0.11939 z m -8.70653,-7.10848 c -0.61119,-0.31868 -0.84225,-0.56599 -1.19079,-1.27453 -0.26919,-0.54724 -0.31522,-0.85851 -0.31824,-2.15197 -0.003,-1.3143 0.0388,-1.5983 0.31987,-2.169 0.45985,-0.9339 1.09355,-1.376 2.07384,-1.4469 1.36454,-0.099 2.15217,0.5707 2.56498,2.1801 0.50612,1.97321 -0.0504,4.07107 -1.26471,4.76729 -0.63707,0.36527 -1.58737,0.40659 -2.18495,0.095 z m -11.25315,3.66269 c 2.66179,-0.5048 4.1728,-2.0528 4.1728,-4.27495 0,-1.97137 -0.97548,-3.12004 -3.6716,-4.32364 -1.54338,-0.689 -2.10241,-1.1215 -2.10241,-1.6268 0,-0.4188 0.53052,-0.8777 1.14813,-0.993 0.60302,-0.1126 2.20237,0.1652 3.14683,0.5467 l 0.79167,0.3198 0,-1.7524 0,-1.7525 -0.85923,-0.1906 c -0.53103,-0.1178 -1.64689,-0.1885 -2.92137,-0.1849 -1.80528,0 -2.15881,0.044 -2.83818,0.3138 -1.98445,0.7878 -2.92613,2.1298 -2.91107,4.1485 0.0141,1.8898 1.01108,3.06864 3.49227,4.12912 1.46399,0.62572 2.05076,1.10218 2.05076,1.66522 0,1.1965 -1.99362,1.34375 -4.10437,0.30315 -0.57805,-0.28498 -1.09739,-0.54137 -1.1541,-0.56976 -0.0567,-0.0284 -0.10311,0.79023 -0.10311,1.81917 0,1.86239 0.002,1.87137 0.33919,1.99974 1.26979,0.48278 4.07626,0.69787 5.52379,0.42335 z m 30.4308,-1.72766 0,-1.58098 -2.40584,0 -2.40583,0 0,-5.43035 0,-5.4303 -2.13089,0 -2.13088,0 0,7.0113 0,7.01131 4.53672,0 4.53672,0 0,-1.58098 z m -14.84745,-27.70503 c 4.23447,-0.2937 7.4086,-0.8482 10.20178,-1.7821 2.78264,-0.9304 4.42643,-2.0562 4.79413,-3.2834 0.14166,-0.4729 0.13146,-0.6523 -0.0665,-1.1708 -0.88775,-2.3245 -5.84694,-4.1104 -13.42493,-4.8345 -3.24154,-0.3098 -9.13671,-0.2094 -12.22745,0.2081 -4.71604,0.6372 -8.54333,1.8208 -10.2451,3.1683 -3.44251,2.726 0.19793,5.7242 8.66397,7.1354 3.67084,0.6119 8.42674,0.828 12.30414,0.559 z" fill="#00bcf2" transform="translate(-830.906 -943.981)"/>
        </symbol>
        <symbol id="icon-node.js" viewBox="0 0 128 128">
            <path fill="#83CD29" d="M112.771 30.334L68.674 4.729c-2.781-1.584-6.402-1.584-9.205 0L14.901 30.334C12.031 31.985 10 35.088 10 38.407v51.142c0 3.319 2.084 6.423 4.954 8.083l11.775 6.688c5.628 2.772 7.617 2.772 10.178 2.772 8.333 0 13.093-5.039 13.093-13.828v-50.49c0-.713-.371-1.774-1.071-1.774h-5.623C42.594 41 41 42.061 41 42.773v50.49c0 3.896-3.524 7.773-10.11 4.48L18.723 90.73c-.424-.23-.723-.693-.723-1.181V38.407c0-.482.555-.966.982-1.213l44.424-25.561c.415-.235 1.025-.235 1.439 0l43.882 25.555c.42.253.272.722.272 1.219v51.142c0 .488.183.963-.232 1.198l-44.086 25.576c-.378.227-.847.227-1.261 0l-11.307-6.749c-.341-.198-.746-.269-1.073-.086-3.146 1.783-3.726 2.02-6.677 3.043-.726.253-1.797.692.41 1.929l14.798 8.754a9.294 9.294 0 004.647 1.246c1.642 0 3.25-.426 4.667-1.246l43.885-25.582c2.87-1.672 4.23-4.764 4.23-8.083V38.407c0-3.319-1.36-6.414-4.229-8.073zM77.91 81.445c-11.726 0-14.309-3.235-15.17-9.066-.1-.628-.633-1.379-1.272-1.379h-5.731c-.709 0-1.279.86-1.279 1.566 0 7.466 4.059 16.512 23.453 16.512 14.039 0 22.088-5.455 22.088-15.109 0-9.572-6.467-12.084-20.082-13.886-13.762-1.819-15.16-2.738-15.16-5.962 0-2.658 1.184-6.203 11.374-6.203 9.105 0 12.461 1.954 13.842 8.091.118.577.645.991 1.24.991h5.754c.354 0 .692-.143.94-.396.24-.272.367-.613.335-.979-.891-10.568-7.912-15.493-22.112-15.493-12.631 0-20.166 5.334-20.166 14.275 0 9.698 7.497 12.378 19.622 13.577 14.505 1.422 15.633 3.542 15.633 6.395 0 4.955-3.978 7.066-13.309 7.066z"/>
        </symbol>
        <symbol id="icon-git" viewBox="0 0 128 128">
            <path fill="#F34F29" d="M124.737 58.378L69.621 3.264c-3.172-3.174-8.32-3.174-11.497 0L46.68 14.71l14.518 14.518c3.375-1.139 7.243-.375 9.932 2.314 2.703 2.706 3.461 6.607 2.294 9.993l13.992 13.993c3.385-1.167 7.292-.413 9.994 2.295 3.78 3.777 3.78 9.9 0 13.679a9.673 9.673 0 01-13.683 0 9.677 9.677 0 01-2.105-10.521L68.574 47.933l-.002 34.341a9.708 9.708 0 012.559 1.828c3.778 3.777 3.778 9.898 0 13.683-3.779 3.777-9.904 3.777-13.679 0-3.778-3.784-3.778-9.905 0-13.683a9.65 9.65 0 013.167-2.11V47.333a9.581 9.581 0 01-3.167-2.111c-2.862-2.86-3.551-7.06-2.083-10.576L41.056 20.333 3.264 58.123a8.133 8.133 0 000 11.5l55.117 55.114c3.174 3.174 8.32 3.174 11.499 0l54.858-54.858a8.135 8.135 0 00-.001-11.501z"/>
        </symbol>
        <symbol id="icon-postgresql" viewBox="0 0 128 128">

            <path d="M93.809 92.112c.785-6.533.55-7.492 5.416-6.433l1.235.108c3.742.17 8.637-.602 11.513-1.938 6.191-2.873 9.861-7.668 3.758-6.409-13.924 2.873-14.881-1.842-14.881-1.842 14.703-21.815 20.849-49.508 15.543-56.287-14.47-18.489-39.517-9.746-39.936-9.52l-.134.025c-2.751-.571-5.83-.912-9.289-.968-6.301-.104-11.082 1.652-14.709 4.402 0 0-44.683-18.409-42.604 23.151.442 8.841 12.672 66.898 27.26 49.362 5.332-6.412 10.484-11.834 10.484-11.834 2.558 1.699 5.622 2.567 8.834 2.255l.249-.212c-.078.796-.044 1.575.099 2.497-3.757 4.199-2.653 4.936-10.166 6.482-7.602 1.566-3.136 4.355-.221 5.084 3.535.884 11.712 2.136 17.238-5.598l-.22.882c1.474 1.18 1.375 8.477 1.583 13.69.209 5.214.558 10.079 1.621 12.948 1.063 2.868 2.317 10.256 12.191 8.14 8.252-1.764 14.561-4.309 15.136-27.985"/>
            <path d="M75.458 125.256c-4.367 0-7.211-1.689-8.938-3.32-2.607-2.46-3.641-5.629-4.259-7.522l-.267-.79c-1.244-3.358-1.666-8.193-1.916-14.419-.038-.935-.064-1.898-.093-2.919-.021-.747-.047-1.684-.085-2.664a18.8 18.8 0 01-4.962 1.568c-3.079.526-6.389.356-9.84-.507-2.435-.609-4.965-1.871-6.407-3.82-4.203 3.681-8.212 3.182-10.396 2.453-3.853-1.285-7.301-4.896-10.542-11.037-2.309-4.375-4.542-10.075-6.638-16.943-3.65-11.96-5.969-24.557-6.175-28.693C4.292 23.698 7.777 14.44 15.296 9.129 27.157.751 45.128 5.678 51.68 7.915c4.402-2.653 9.581-3.944 15.433-3.851 3.143.051 6.136.327 8.916.823 2.9-.912 8.628-2.221 15.185-2.139 12.081.144 22.092 4.852 28.949 13.615 4.894 6.252 2.474 19.381.597 26.651-2.642 10.226-7.271 21.102-12.957 30.57 1.544.011 3.781-.174 6.961-.831 6.274-1.295 8.109 2.069 8.607 3.575 1.995 6.042-6.677 10.608-9.382 11.864-3.466 1.609-9.117 2.589-13.745 2.377l-.202-.013-1.216-.107-.12 1.014-.116.991c-.311 11.999-2.025 19.598-5.552 24.619-3.697 5.264-8.835 6.739-13.361 7.709-1.544.33-2.947.474-4.219.474zm-9.19-43.671c2.819 2.256 3.066 6.501 3.287 14.434.028.99.054 1.927.089 2.802.106 2.65.355 8.855 1.327 11.477.137.371.26.747.39 1.146 1.083 3.316 1.626 4.979 6.309 3.978 3.931-.843 5.952-1.599 7.534-3.851 2.299-3.274 3.585-9.86 3.821-19.575l4.783.116-4.75-.57.14-1.186c.455-3.91.783-6.734 3.396-8.602 2.097-1.498 4.486-1.353 6.389-1.01-2.091-1.58-2.669-3.433-2.823-4.193l-.399-1.965 1.121-1.663c6.457-9.58 11.781-21.354 14.609-32.304 2.906-11.251 2.02-17.226 1.134-18.356-11.729-14.987-32.068-8.799-34.192-8.097l-.359.194-1.8.335-.922-.191c-2.542-.528-5.366-.82-8.393-.869-4.756-.08-8.593 1.044-11.739 3.431l-2.183 1.655-2.533-1.043c-5.412-2.213-21.308-6.662-29.696-.721-4.656 3.298-6.777 9.76-6.305 19.207.156 3.119 2.275 14.926 5.771 26.377 4.831 15.825 9.221 21.082 11.054 21.693.32.108 1.15-.537 1.976-1.529a270.708 270.708 0 0110.694-12.07l2.77-2.915 3.349 2.225c1.35.897 2.839 1.406 4.368 1.502l7.987-6.812-1.157 11.808c-.026.265-.039.626.065 1.296l.348 2.238-1.51 1.688-.174.196 4.388 2.025 1.836-2.301z"/>
            <path fill="#336791" d="M115.731 77.44c-13.925 2.873-14.882-1.842-14.882-1.842 14.703-21.816 20.849-49.51 15.545-56.287C101.924.823 76.875 9.566 76.457 9.793l-.135.024c-2.751-.571-5.83-.911-9.291-.967-6.301-.103-11.08 1.652-14.707 4.402 0 0-44.684-18.408-42.606 23.151.442 8.842 12.672 66.899 27.26 49.363 5.332-6.412 10.483-11.834 10.483-11.834 2.559 1.699 5.622 2.567 8.833 2.255l.25-.212c-.078.796-.042 1.575.1 2.497-3.758 4.199-2.654 4.936-10.167 6.482-7.602 1.566-3.136 4.355-.22 5.084 3.534.884 11.712 2.136 17.237-5.598l-.221.882c1.473 1.18 2.507 7.672 2.334 13.557-.174 5.885-.29 9.926.871 13.082 1.16 3.156 2.316 10.256 12.192 8.14 8.252-1.768 12.528-6.351 13.124-13.995.422-5.435 1.377-4.631 1.438-9.49l.767-2.3c.884-7.367.14-9.743 5.225-8.638l1.235.108c3.742.17 8.639-.602 11.514-1.938 6.19-2.871 9.861-7.667 3.758-6.408z"/>
            <path fill="#fff" d="M75.957 122.307c-8.232 0-10.84-6.519-11.907-9.185-1.562-3.907-1.899-19.069-1.551-31.503a1.59 1.59 0 011.64-1.55 1.594 1.594 0 011.55 1.639c-.401 14.341.168 27.337 1.324 30.229 1.804 4.509 4.54 8.453 12.275 6.796 7.343-1.575 10.093-4.359 11.318-11.46.94-5.449 2.799-20.951 3.028-24.01a1.593 1.593 0 011.71-1.472 1.597 1.597 0 011.472 1.71c-.239 3.185-2.089 18.657-3.065 24.315-1.446 8.387-5.185 12.191-13.794 14.037-1.463.313-2.792.453-4 .454zM31.321 90.466a6.71 6.71 0 01-2.116-.35c-5.347-1.784-10.44-10.492-15.138-25.885-3.576-11.717-5.842-23.947-6.041-27.922-.589-11.784 2.445-20.121 9.02-24.778 13.007-9.216 34.888-.44 35.813-.062a1.596 1.596 0 01-1.207 2.955c-.211-.086-21.193-8.492-32.768-.285-5.622 3.986-8.203 11.392-7.672 22.011.167 3.349 2.284 15.285 5.906 27.149 4.194 13.742 8.967 22.413 13.096 23.79.648.216 2.62.873 5.439-2.517A245.272 245.272 0 0145.88 73.046a1.596 1.596 0 012.304 2.208c-.048.05-4.847 5.067-10.077 11.359-2.477 2.979-4.851 3.853-6.786 3.853zm69.429-13.445a1.596 1.596 0 01-1.322-2.487c14.863-22.055 20.08-48.704 15.612-54.414-5.624-7.186-13.565-10.939-23.604-11.156-7.433-.16-13.341 1.738-14.307 2.069l-.243.099c-.971.305-1.716-.227-1.997-.849a1.6 1.6 0 01.631-2.025c.046-.027.192-.089.429-.176l-.021.006.021-.007c1.641-.601 7.639-2.4 15.068-2.315 11.108.118 20.284 4.401 26.534 12.388 2.957 3.779 2.964 12.485.019 23.887-3.002 11.625-8.651 24.118-15.497 34.277-.306.457-.81.703-1.323.703zm.76 10.21c-2.538 0-4.813-.358-6.175-1.174-1.4-.839-1.667-1.979-1.702-2.584-.382-6.71 3.32-7.878 5.208-8.411-.263-.398-.637-.866-1.024-1.349-1.101-1.376-2.609-3.26-3.771-6.078-.182-.44-.752-1.463-1.412-2.648-3.579-6.418-11.026-19.773-6.242-26.612 2.214-3.165 6.623-4.411 13.119-3.716C97.6 28.837 88.5 10.625 66.907 10.271c-6.494-.108-11.82 1.889-15.822 5.93-8.96 9.049-8.636 25.422-8.631 25.586a1.595 1.595 0 11-3.19.084c-.02-.727-.354-17.909 9.554-27.916C53.455 9.272 59.559 6.96 66.96 7.081c13.814.227 22.706 7.25 27.732 13.101 5.479 6.377 8.165 13.411 8.386 15.759.165 1.746-1.088 2.095-1.341 2.147l-.576.013c-6.375-1.021-10.465-.312-12.156 2.104-3.639 5.201 3.406 17.834 6.414 23.229.768 1.376 1.322 2.371 1.576 2.985.988 2.396 2.277 4.006 3.312 5.3.911 1.138 1.7 2.125 1.982 3.283.131.23 1.99 2.98 13.021.703 2.765-.57 4.423-.083 4.93 1.45.997 3.015-4.597 6.532-7.694 7.97-2.775 1.29-7.204 2.106-11.036 2.106zm-4.696-4.021c.35.353 2.101.962 5.727.806 3.224-.138 6.624-.839 8.664-1.786 2.609-1.212 4.351-2.567 5.253-3.492l-.5.092c-7.053 1.456-12.042 1.262-14.828-.577a6.162 6.162 0 01-.54-.401c-.302.119-.581.197-.78.253-1.58.443-3.214.902-2.996 5.105zm-45.562 8.915c-1.752 0-3.596-.239-5.479-.71-1.951-.488-5.24-1.957-5.19-4.37.057-2.707 3.994-3.519 5.476-3.824 5.354-1.103 5.703-1.545 7.376-3.67.488-.619 1.095-1.39 1.923-2.314 1.229-1.376 2.572-2.073 3.992-2.073.989 0 1.8.335 2.336.558 1.708.708 3.133 2.42 3.719 4.467.529 1.847.276 3.625-.71 5.006-3.237 4.533-7.886 6.93-13.443 6.93zm-7.222-4.943c.481.372 1.445.869 2.518 1.137 1.631.408 3.213.615 4.705.615 4.546 0 8.196-1.882 10.847-5.594.553-.774.387-1.757.239-2.274-.31-1.083-1.08-2.068-1.873-2.397-.43-.178-.787-.314-1.115-.314-.176 0-.712 0-1.614 1.009a41.146 41.146 0 00-1.794 2.162c-2.084 2.646-3.039 3.544-9.239 4.821-1.513.31-2.289.626-2.674.835zm12.269-7.36a1.596 1.596 0 01-1.575-1.354 8.218 8.218 0 01-.08-.799c-4.064-.076-7.985-1.82-10.962-4.926-3.764-3.927-5.477-9.368-4.699-14.927.845-6.037.529-11.366.359-14.229-.047-.796-.081-1.371-.079-1.769.003-.505.013-1.844 4.489-4.113 1.592-.807 4.784-2.215 8.271-2.576 5.777-.597 9.585 1.976 10.725 7.246 3.077 14.228.244 20.521-1.825 25.117-.385.856-.749 1.664-1.04 2.447l-.257.69c-1.093 2.931-2.038 5.463-1.748 7.354a1.595 1.595 0 01-1.335 1.819l-.244.02zM42.464 42.26l.062 1.139c.176 2.974.504 8.508-.384 14.86-.641 4.585.759 9.06 3.843 12.276 2.437 2.542 5.644 3.945 8.94 3.945h.068c.369-1.555.982-3.197 1.642-4.966l.255-.686c.329-.884.714-1.74 1.122-2.646 1.991-4.424 4.47-9.931 1.615-23.132-.565-2.615-1.936-4.128-4.189-4.627-4.628-1.022-11.525 2.459-12.974 3.837zm9.63-.677c-.08.564 1.033 2.07 2.485 2.271 1.449.203 2.689-.975 2.768-1.539.079-.564-1.033-1.186-2.485-1.388-1.451-.202-2.691.092-2.768.656zm2.818 2.826l-.407-.028c-.9-.125-1.81-.692-2.433-1.518-.219-.29-.576-.852-.505-1.354.101-.736.999-1.177 2.4-1.177.313 0 .639.023.967.069.766.106 1.477.327 2.002.62.91.508.977 1.075.936 1.368-.112.813-1.405 2.02-2.96 2.02zm-2.289-2.732c.045.348.907 1.496 2.029 1.651l.261.018c1.036 0 1.81-.815 1.901-1.082-.096-.182-.762-.634-2.025-.81a5.823 5.823 0 00-.821-.059c-.812 0-1.243.183-1.345.282zm43.605-1.245c.079.564-1.033 2.07-2.484 2.272-1.45.202-2.691-.975-2.771-1.539-.076-.564 1.036-1.187 2.486-1.388 1.45-.203 2.689.092 2.769.655zm-2.819 2.56c-1.396 0-2.601-1.086-2.7-1.791-.115-.846 1.278-1.489 2.712-1.688.316-.044.629-.066.93-.066 1.238 0 2.058.363 2.14.949.053.379-.238.964-.739 1.492-.331.347-1.026.948-1.973 1.079l-.37.025zm.943-3.013c-.276 0-.564.021-.856.061-1.441.201-2.301.779-2.259 1.089.048.341.968 1.332 2.173 1.332l.297-.021c.787-.109 1.378-.623 1.66-.919.443-.465.619-.903.598-1.052-.028-.198-.56-.49-1.613-.49zm3.965 32.843a1.594 1.594 0 01-1.324-2.483c3.398-5.075 2.776-10.25 2.175-15.255-.257-2.132-.521-4.337-.453-6.453.07-2.177.347-3.973.614-5.71.317-2.058.617-4.002.493-6.31a1.595 1.595 0 113.186-.172c.142 2.638-.197 4.838-.525 6.967-.253 1.643-.515 3.342-.578 5.327-.061 1.874.178 3.864.431 5.97.64 5.322 1.365 11.354-2.691 17.411a1.596 1.596 0 01-1.328.708z"/>

        </symbol>

        <symbol id="icon-supabase" viewBox="0 0 109 113" fill="none">
            <path d="M63.7076 110.284C60.8481 113.885 55.0502 111.912 54.9813 107.314L53.9738 40.0627L99.1935 40.0627C107.384 40.0627 111.952 49.5228 106.859 55.9374L63.7076 110.284Z" fill="url(#paint0_linear)"/>
            <path d="M63.7076 110.284C60.8481 113.885 55.0502 111.912 54.9813 107.314L53.9738 40.0627L99.1935 40.0627C107.384 40.0627 111.952 49.5228 106.859 55.9374L63.7076 110.284Z" fill="url(#paint1_linear)" fill-opacity="0.2"/>
            <path d="M45.317 2.07103C48.1765 -1.53037 53.9745 0.442937 54.0434 5.041L54.4849 72.2922H9.83113C1.64038 72.2922 -2.92775 62.8321 2.1655 56.4175L45.317 2.07103Z" fill="#3ECF8E"/>
            <defs>
                <linearGradient id="paint0_linear" x1="53.9738" y1="54.974" x2="94.1635" y2="71.8295" gradientUnits="userSpaceOnUse">
                    <stop stop-color="#249361"/>
                    <stop offset="1" stop-color="#3ECF8E"/>
                </linearGradient>
                <linearGradient id="paint1_linear" x1="36.1558" y1="30.578" x2="54.4844" y2="65.0806" gradientUnits="userSpaceOnUse">
                    <stop/>
                    <stop offset="1" stop-opacity="0"/>
                </linearGradient>
            </defs>
        </symbol>


        <symbol id="icon-www" viewBox="0 0 490 490" xml:space="preserve">
            <g id="SVGRepo_bgCarrier" stroke-width="0"></g>
            <g id="SVGRepo_tracerCarrier" stroke-linecap="round" stroke-linejoin="round"></g>
            <g id="SVGRepo_iconCarrier">
                <path d="M245,0C109.69,0,0,109.69,0,245s109.69,245,245,245s245-109.69,245-245S380.31,0,245,0z M31.401,260.313h52.542 c1.169,25.423,5.011,48.683,10.978,69.572H48.232C38.883,308.299,33.148,284.858,31.401,260.313z M320.58,229.688 c-1.152-24.613-4.07-47.927-8.02-69.572h50.192c6.681,20.544,11.267,43.71,12.65,69.572H320.58z M206.38,329.885 c-4.322-23.863-6.443-47.156-6.836-69.572h90.913c-0.392,22.416-2.514,45.709-6.837,69.572H206.38z M276.948,360.51 c-7.18,27.563-17.573,55.66-31.951,83.818c-14.376-28.158-24.767-56.255-31.946-83.818H276.948z M199.961,229.688 c1.213-24.754,4.343-48.08,8.499-69.572h73.08c4.157,21.492,7.286,44.818,8.5,69.572H199.961z M215.342,129.492 c9.57-37.359,21.394-66.835,29.656-84.983c8.263,18.148,20.088,47.624,29.66,84.983H215.342z M306.07,129.492 c-9.77-40.487-22.315-73.01-31.627-94.03c11.573,8.235,50.022,38.673,76.25,94.03H306.07z M215.553,35.46 c-9.312,21.02-21.855,53.544-31.624,94.032h-44.628C165.532,74.13,203.984,43.692,215.553,35.46z M177.44,160.117 c-3.95,21.645-6.867,44.959-8.019,69.572h-54.828c1.383-25.861,5.968-49.028,12.65-69.572H177.44z M83.976,229.688H31.401 c1.747-24.545,7.481-47.984,16.83-69.572h46.902C89.122,181.002,85.204,204.246,83.976,229.688z M114.577,260.313h54.424 c0.348,22.454,2.237,45.716,6.241,69.572h-47.983C120.521,309.288,115.92,286.115,114.577,260.313z M181.584,360.51 c7.512,31.183,18.67,63.054,34.744,95.053c-10.847-7.766-50.278-38.782-77.013-95.053H181.584z M273.635,455.632 c16.094-32.022,27.262-63.916,34.781-95.122h42.575C324.336,417.068,284.736,447.827,273.635,455.632z M314.759,329.885 c4.005-23.856,5.894-47.118,6.241-69.572h54.434c-1.317,25.849-5.844,49.016-12.483,69.572H314.759z M406.051,260.313h52.548 c-1.748,24.545-7.482,47.985-16.831,69.572h-46.694C401.041,308.996,404.882,285.736,406.051,260.313z M406.019,229.688 c-1.228-25.443-5.146-48.686-11.157-69.572h46.908c9.35,21.587,15.083,45.026,16.83,69.572H406.019z M425.309,129.492h-41.242 c-13.689-32.974-31.535-59.058-48.329-78.436C372.475,68.316,403.518,95.596,425.309,129.492z M154.252,51.06 c-16.792,19.378-34.636,45.461-48.324,78.432H64.691C86.48,95.598,117.52,68.321,154.252,51.06z M64.692,360.51h40.987 c13.482,32.637,31.076,58.634,47.752,78.034C117.059,421.262,86.318,394.148,64.692,360.51z M336.576,438.54 c16.672-19.398,34.263-45.395,47.742-78.03h40.99C403.684,394.146,372.945,421.258,336.576,438.54z"></path>
            </g>
        </symbol>


    </defs>
</svg>



